<svg height="1566" width="720" xmlns="http://www.w3.org/2000/svg">
<rect height="1566" fill="#555" width="720"></rect>
<text fill="#7f7" font-family="Courier New" font-size="12" xml:space="preserve">
<tspan x="10" y="26">13 megabytes installed</tspan>
<tspan x="10" y="42"></tspan>
<tspan x="10" y="58">node_modules</tspan>
<tspan x="10" y="74">└─┬ node-zendesk@1.1.12 </tspan>
<tspan x="10" y="90">  ├── async@0.9.2 </tspan>
<tspan x="10" y="106">  ├── flatten@0.0.1 </tspan>
<tspan x="10" y="122">  ├─┬ nconf@0.7.2 </tspan>
<tspan x="10" y="138">  │ ├── ini@1.3.4 </tspan>
<tspan x="10" y="154">  │ └─┬ yargs@3.15.0 </tspan>
<tspan x="10" y="170">  │   ├── camelcase@1.2.1 </tspan>
<tspan x="10" y="186">  │   ├─┬ cliui@2.1.0 </tspan>
<tspan x="10" y="202">  │   │ ├─┬ center-align@0.1.3 </tspan>
<tspan x="10" y="218">  │   │ │ ├─┬ align-text@0.1.4 </tspan>
<tspan x="10" y="234">  │   │ │ │ ├─┬ kind-of@3.1.0 </tspan>
<tspan x="10" y="250">  │   │ │ │ │ └── is-buffer@1.1.5 </tspan>
<tspan x="10" y="266">  │   │ │ │ ├── longest@1.0.1 </tspan>
<tspan x="10" y="282">  │   │ │ │ └── repeat-string@1.6.1 </tspan>
<tspan x="10" y="298">  │   │ │ └── lazy-cache@1.0.4 </tspan>
<tspan x="10" y="314">  │   │ ├── right-align@0.1.3 </tspan>
<tspan x="10" y="330">  │   │ └── wordwrap@0.0.2 </tspan>
<tspan x="10" y="346">  │   ├── decamelize@1.2.0 </tspan>
<tspan x="10" y="362">  │   └── window-size@0.1.4 </tspan>
<tspan x="10" y="378">  ├── querystring@0.2.0 </tspan>
<tspan x="10" y="394">  └─┬ request@2.74.0 </tspan>
<tspan x="10" y="410">    ├── aws-sign2@0.6.0 </tspan>
<tspan x="10" y="426">    ├── aws4@1.6.0 </tspan>
<tspan x="10" y="442">    ├─┬ bl@1.1.2 </tspan>
<tspan x="10" y="458">    │ └─┬ readable-stream@2.0.6 </tspan>
<tspan x="10" y="474">    │   ├── core-util-is@1.0.2 </tspan>
<tspan x="10" y="490">    │   ├── inherits@2.0.3 </tspan>
<tspan x="10" y="506">    │   ├── isarray@1.0.0 </tspan>
<tspan x="10" y="522">    │   ├── process-nextick-args@1.0.7 </tspan>
<tspan x="10" y="538">    │   ├── string_decoder@0.10.31 </tspan>
<tspan x="10" y="554">    │   └── util-deprecate@1.0.2 </tspan>
<tspan x="10" y="570">    ├── caseless@0.11.0 </tspan>
<tspan x="10" y="586">    ├─┬ combined-stream@1.0.5 </tspan>
<tspan x="10" y="602">    │ └── delayed-stream@1.0.0 </tspan>
<tspan x="10" y="618">    ├── extend@3.0.0 </tspan>
<tspan x="10" y="634">    ├── forever-agent@0.6.1 </tspan>
<tspan x="10" y="650">    ├─┬ form-data@1.0.1 </tspan>
<tspan x="10" y="666">    │ └─┬ async@2.3.0 </tspan>
<tspan x="10" y="682">    │   └── lodash@4.17.4 </tspan>
<tspan x="10" y="698">    ├─┬ har-validator@2.0.6 </tspan>
<tspan x="10" y="714">    │ ├─┬ chalk@1.1.3 </tspan>
<tspan x="10" y="730">    │ │ ├── ansi-styles@2.2.1 </tspan>
<tspan x="10" y="746">    │ │ ├── escape-string-regexp@1.0.5 </tspan>
<tspan x="10" y="762">    │ │ ├─┬ has-ansi@2.0.0 </tspan>
<tspan x="10" y="778">    │ │ │ └── ansi-regex@2.1.1 </tspan>
<tspan x="10" y="794">    │ │ ├── strip-ansi@3.0.1 </tspan>
<tspan x="10" y="810">    │ │ └── supports-color@2.0.0 </tspan>
<tspan x="10" y="826">    │ ├─┬ commander@2.9.0 </tspan>
<tspan x="10" y="842">    │ │ └── graceful-readlink@1.0.1 </tspan>
<tspan x="10" y="858">    │ ├─┬ is-my-json-valid@2.16.0 </tspan>
<tspan x="10" y="874">    │ │ ├── generate-function@2.0.0 </tspan>
<tspan x="10" y="890">    │ │ ├─┬ generate-object-property@1.2.0 </tspan>
<tspan x="10" y="906">    │ │ │ └── is-property@1.0.2 </tspan>
<tspan x="10" y="922">    │ │ ├── jsonpointer@4.0.1 </tspan>
<tspan x="10" y="938">    │ │ └── xtend@4.0.1 </tspan>
<tspan x="10" y="954">    │ └─┬ pinkie-promise@2.0.1 </tspan>
<tspan x="10" y="970">    │   └── pinkie@2.0.4 </tspan>
<tspan x="10" y="986">    ├─┬ hawk@3.1.3 </tspan>
<tspan x="10" y="1002">    │ ├── boom@2.10.1 </tspan>
<tspan x="10" y="1018">    │ ├── cryptiles@2.0.5 </tspan>
<tspan x="10" y="1034">    │ ├── hoek@2.16.3 </tspan>
<tspan x="10" y="1050">    │ └── sntp@1.0.9 </tspan>
<tspan x="10" y="1066">    ├─┬ http-signature@1.1.1 </tspan>
<tspan x="10" y="1082">    │ ├── assert-plus@0.2.0 </tspan>
<tspan x="10" y="1098">    │ ├─┬ jsprim@1.4.0 </tspan>
<tspan x="10" y="1114">    │ │ ├── assert-plus@1.0.0 </tspan>
<tspan x="10" y="1130">    │ │ ├── extsprintf@1.0.2 </tspan>
<tspan x="10" y="1146">    │ │ ├── json-schema@0.2.3 </tspan>
<tspan x="10" y="1162">    │ │ └── verror@1.3.6 </tspan>
<tspan x="10" y="1178">    │ └─┬ sshpk@1.13.0 </tspan>
<tspan x="10" y="1194">    │   ├── asn1@0.2.3 </tspan>
<tspan x="10" y="1210">    │   ├── assert-plus@1.0.0 </tspan>
<tspan x="10" y="1226">    │   ├── bcrypt-pbkdf@1.0.1 </tspan>
<tspan x="10" y="1242">    │   ├─┬ dashdash@1.14.1 </tspan>
<tspan x="10" y="1258">    │   │ └── assert-plus@1.0.0 </tspan>
<tspan x="10" y="1274">    │   ├── ecc-jsbn@0.1.1 </tspan>
<tspan x="10" y="1290">    │   ├─┬ getpass@0.1.6 </tspan>
<tspan x="10" y="1306">    │   │ └── assert-plus@1.0.0 </tspan>
<tspan x="10" y="1322">    │   ├── jodid25519@1.0.2 </tspan>
<tspan x="10" y="1338">    │   ├── jsbn@0.1.1 </tspan>
<tspan x="10" y="1354">    │   └── tweetnacl@0.14.5 </tspan>
<tspan x="10" y="1370">    ├── is-typedarray@1.0.0 </tspan>
<tspan x="10" y="1386">    ├── isstream@0.1.2 </tspan>
<tspan x="10" y="1402">    ├── json-stringify-safe@5.0.1 </tspan>
<tspan x="10" y="1418">    ├─┬ mime-types@2.1.15 </tspan>
<tspan x="10" y="1434">    │ └── mime-db@1.27.0 </tspan>
<tspan x="10" y="1450">    ├── node-uuid@1.4.8 </tspan>
<tspan x="10" y="1466">    ├── oauth-sign@0.8.2 </tspan>
<tspan x="10" y="1482">    ├── qs@6.2.3 </tspan>
<tspan x="10" y="1498">    ├── stringstream@0.0.5 </tspan>
<tspan x="10" y="1514">    ├─┬ tough-cookie@2.3.2 </tspan>
<tspan x="10" y="1530">    │ └── punycode@1.4.1 </tspan>
<tspan x="10" y="1546">    └── tunnel-agent@0.4.3</tspan>
</text>
</svg>
